# xmcd
#
# Track frame offsets:
#	150
#	18745
#	32730
#	45780
#	66412
#	82792
#	97245
#	109082
#	120915
#	139647
#	157412
#	172550
#	181940
#	191945
#	203815
#	215587
#
# Disc length: 3064 seconds
#
# Revision: 1
# Processed by: cddbd v1.5.2PL0 Copyright (c) Steve Scherf et al.
# Submitted via: audiograbber 1.83.01
#
DISCID=d90bf610
DTITLE=Rig Rock Deluxe - A Musical Salute to the American Truck Driver
DYEAR=1996
DGENRE=Country
TTITLE0=Don Walser - Truck Driving Man
TTITLE1=Buck Owens - Will There Be Big Rigs In Heaven
TTITLE2=Red Simpson - Nitro Express
TTITLE3=Marty Stuart - Miss Marie and the Bedford Blaze
TTITLE4=Kelly Willis - Truckstop Girl
TTITLE5=Shaver - Mother Trucker
TTITLE6=Son Volt - Lookin At The World Through A Windshield
TTITLE7=Dell Reeves - Diesel Diesel Diesel
TTITLE8=Cheri Knight - Wagon Of Clay
TTITLE9=Steve Earle - White Freight Liner Blues
TTITLE10=The Yayhoos - Highway Junkie
TTITLE11=Bill Kirchen - Semi Truck
TTITLE12=Kay Adams and BR 549 - Mama Was A Rock (Daddy Was A Rolling Stone)
TTITLE13=Nick Lowe - I'm Coming Home
TTITLE14=Bottle Rockets - Truck Drivin Man (Give It All I Can)
TTITLE15=Rig Rock Deluxe - Six Days On The Road
EXTD=
EXTT0=
EXTT1=
EXTT2=
EXTT3=
EXTT4=
EXTT5=
EXTT6=
EXTT7=
EXTT8=
EXTT9=
EXTT10=
EXTT11=
EXTT12=
EXTT13=
EXTT14=
EXTT15=
PLAYORDER=
